<svg xmlns="http://www.w3.org/2000/svg" width="120" height="100" viewBox="0 0 120 100"><rect width="120" height="100" fill="#120d1a"/><g stroke="#a855f7" stroke-width="1.5" opacity=".5"><line x1="8" y1="24" x2="112" y2="24"/><line x1="8" y1="30" x2="112" y2="30"/><line x1="8" y1="36" x2="112" y2="36"/><line x1="8" y1="42" x2="112" y2="42"/></g><path d="M60 10 C 40 14, 34 22, 44 28 C 30 32, 34 44, 48 46 C 36 52, 44 64, 58 64 C 74 64, 78 52, 66 46 C 84 42, 82 28, 66 24 C 74 20, 72 12, 60 10 Z" fill="#a855f7" opacity=".9"/><path d="M44 28 C 52 26, 56 32, 48 46 M48 46 C 56 44, 62 50, 58 64" stroke="#e9d5ff" stroke-width="2" fill="none" opacity=".7"/></svg>